<?xml version="1.0" standalone="no"?>
<!DOCTYPE svg PUBLIC "-//W3C//DTD SVG 20010904//EN"
 "http://www.w3.org/TR/2001/REC-SVG-20010904/DTD/svg10.dtd">
<svg version="1.0" xmlns="http://www.w3.org/2000/svg"
 width="124.000000pt" height="124.000000pt" viewBox="0 0 124.000000 124.000000"
 preserveAspectRatio="xMidYMid meet">
<metadata>
Created by potrace 1.11, written by Peter Selinger 2001-2013
</metadata>
<g transform="translate(0.000000,124.000000) scale(0.100000,-0.100000)"
fill="#000000" stroke="none">
<path d="M422 974 c-137 -36 -254 -140 -332 -294 -24 -47 -72 -180 -65 -180 3
0 0 -12 -5 -26 -6 -15 -13 -68 -16 -119 -5 -72 -3 -94 7 -101 14 -8 1157 -14
1192 -6 10 3 22 13 28 24 10 18 -27 58 -337 369 -389 390 -354 365 -472 333z
m410 -381 c142 -142 258 -260 258 -263 0 -10 -915 -6 -922 5 -17 24 22 176 69
268 56 112 175 218 262 234 14 2 28 6 30 9 21 21 65 -15 303 -253z"/>
<path d="M470 763 c-30 -11 -50 -37 -50 -63 0 -82 193 -92 222 -12 6 19 2 29
-21 53 -26 25 -37 29 -83 28 -29 0 -60 -3 -68 -6z"/>
<path d="M666 555 c-32 -17 -55 -43 -52 -59 11 -58 54 -86 131 -86 113 0 171
80 97 135 -36 26 -136 32 -176 10z"/>
<path d="M304 541 c-23 -10 -48 -28 -56 -40 -48 -68 56 -142 176 -126 64 9
122 60 111 97 -24 78 -138 111 -231 69z"/>
</g>
</svg>
